<svg width="380" height="387" viewBox="0 0 380 387" fill="none" xmlns="http://www.w3.org/2000/svg">
<path d="M172.242 222.797C171.949 222.797 171.508 222.504 170.921 221.917H166.516C165.929 221.917 165.341 221.917 164.754 221.917C164.167 222.21 163.579 222.357 162.992 222.357C158.881 222.357 156.825 220.744 156.825 217.519C156.825 216.933 156.825 216.2 156.825 215.32C156.825 214.44 156.972 213.707 157.266 213.121C157.266 211.068 157.706 209.016 158.587 206.964L162.992 200.806C167.397 199.927 170.774 199.487 173.123 199.487C176.06 199.487 177.969 199.927 178.85 200.806C182.667 206.964 183.842 211.655 182.374 214.88C180.612 218.106 178.556 220.158 176.207 221.038L172.683 222.797H172.242Z" fill="#fff"/>
<path d="M232.035 222.797C231.742 222.797 231.301 222.504 230.714 221.917H226.309C225.722 221.917 225.134 221.917 224.547 221.917C223.96 222.21 223.373 222.357 222.785 222.357C218.674 222.357 216.618 220.744 216.618 217.519C216.618 216.933 216.618 216.2 216.618 215.32C216.618 214.44 216.765 213.707 217.059 213.121C217.059 211.068 217.499 209.016 218.38 206.964L222.785 200.806C227.19 199.927 230.567 199.487 232.916 199.487C235.853 199.487 237.762 199.927 238.643 200.806C242.46 206.964 243.635 211.655 242.167 214.88C240.405 218.106 238.349 220.158 236 221.038L232.476 222.797H232.035Z" fill="#fff"/>
<path d="M258.792 262.38C258.205 262.38 259.085 261.207 261.435 258.862C264.371 256.809 267.455 254.024 270.685 250.505C274.796 246.4 277.88 242.442 279.935 238.63L281.697 235.991C281.991 235.405 282.285 234.818 282.578 234.232C282.872 233.646 283.166 233.059 283.459 232.473C284.047 231.3 284.34 230.274 284.34 229.394C284.34 228.514 284.634 227.195 285.221 225.436C285.221 224.556 285.221 223.676 285.221 222.797C285.221 221.917 285.074 221.038 284.781 220.158C284.781 218.106 284.047 216.346 282.578 214.88V208.723C283.459 205.204 285.368 202.859 288.305 201.686C291.535 199.927 294.912 199.047 298.436 199.047C300.785 199.633 302.4 200.806 303.281 202.565C304.162 204.325 304.603 206.377 304.603 208.723C304.603 213.414 303.869 217.226 302.4 220.158C300.638 223.09 298.436 226.609 295.793 230.714L294.031 233.352C292.856 235.112 291.829 236.431 290.948 237.311L287.424 241.269C286.836 241.856 286.396 242.295 286.102 242.589C285.809 243.175 285.515 243.615 285.221 243.908C284.047 245.081 282.872 246.254 281.697 247.426C280.816 248.599 279.935 249.772 279.054 250.945C278.173 252.118 277.292 253.144 276.411 254.024C275.53 255.197 274.356 256.223 272.888 257.102C272.594 257.396 272.007 257.835 271.126 258.422C270.245 259.008 269.217 259.595 268.042 260.181C265.693 261.647 264.078 262.38 263.197 262.38H258.792Z" fill="#fff"/>
<path d="M346.999 283.491C345.31 283.491 343.622 283.16 341.933 282.498C341.933 279.85 342.609 277.753 343.959 276.208C344.973 275.105 345.479 273.78 345.479 272.236C345.479 271.794 345.479 271.242 345.479 270.58C345.479 269.918 345.31 269.256 344.973 268.594C344.635 266.828 344.128 265.173 343.453 263.628C343.115 262.304 342.946 260.869 342.946 259.324C342.946 257.117 342.946 254.91 342.946 252.703C342.946 250.496 342.609 248.289 341.933 246.082C341.933 244.537 341.764 243.544 341.427 243.103V238.799C341.427 237.695 341.596 236.813 341.933 236.151C340.92 235.047 340.582 233.723 340.92 232.178L342.44 226.55C342.777 225.446 343.115 224.453 343.453 223.57C343.791 222.688 344.128 221.805 344.466 220.922C345.479 218.936 345.986 217.391 345.986 216.287C345.648 214.522 345.31 212.866 344.973 211.321C344.973 209.556 344.635 208.011 343.959 206.687C343.959 205.363 343.791 203.928 343.453 202.383C343.115 200.838 342.609 199.293 341.933 197.748C341.933 196.203 342.102 195.1 342.44 194.438C342.777 193.996 342.946 193.555 342.946 193.113C342.946 192.451 343.115 191.9 343.453 191.458C343.453 190.796 343.453 190.024 343.453 189.141C343.453 188.258 343.284 187.375 342.946 186.492C342.946 185.389 342.777 184.175 342.44 182.851C342.44 181.306 342.271 179.651 341.933 177.885C341.933 177.223 341.933 176.45 341.933 175.568C341.933 174.464 342.102 173.361 342.44 172.257C342.777 171.154 342.946 169.94 342.946 168.615C342.946 167.291 343.115 165.967 343.453 164.643C343.791 163.319 343.959 162.105 343.959 161.001C343.959 159.677 344.128 158.463 344.466 157.36C344.804 156.256 344.973 155.263 344.973 154.38C344.973 153.277 344.973 152.504 344.973 152.063V149.414C344.973 147.869 344.804 146.545 344.466 145.442C344.466 144.117 344.297 143.014 343.959 142.131V136.172C343.959 135.069 343.959 134.075 343.959 133.193C343.959 132.089 344.128 131.096 344.466 130.213C344.466 129.11 344.466 128.006 344.466 126.903C344.804 125.799 344.973 124.475 344.973 122.93C344.973 121.826 344.973 120.613 344.973 119.288C344.973 117.964 345.141 116.75 345.479 115.647C345.817 114.322 345.986 112.998 345.986 111.674C345.986 110.35 345.986 109.026 345.986 107.701C346.323 106.156 346.323 104.06 345.986 101.411C345.986 100.087 345.986 98.7629 345.986 97.4387C345.986 96.1145 345.817 94.7903 345.479 93.466C345.141 92.1418 344.973 90.8176 344.973 89.4934C344.973 88.1692 344.804 86.9553 344.466 85.8518C344.128 84.5276 343.959 83.3137 343.959 82.2102C343.959 81.1067 343.959 80.1135 343.959 79.2307C344.297 77.2444 344.466 75.3684 344.466 73.6028C344.466 71.6164 344.466 69.7405 344.466 67.9748C344.466 66.2092 344.466 64.4436 344.466 62.678C344.466 60.9123 344.297 59.2571 343.959 57.7121C343.622 54.1809 343.284 50.9807 342.946 48.1116C342.946 45.0217 342.946 42.0422 342.946 39.1731C342.609 36.3039 342.271 33.6555 341.933 31.2278C341.933 28.8 341.933 26.4827 341.933 24.2756C341.933 22.0686 342.102 20.0823 342.44 18.3166C342.777 16.3303 343.284 14.5647 343.959 13.0198C345.986 12.137 347.843 11.4748 349.532 11.0334C351.558 10.3713 353.415 9.92992 355.104 9.70922C356.792 9.48852 358.312 9.37817 359.663 9.37817C361.351 9.15747 362.533 9.04712 363.208 9.04712C365.91 9.70922 367.261 10.3713 367.261 11.0334C367.936 11.9163 368.105 12.7991 367.767 13.6819L366.248 15.9993C365.572 17.3235 365.235 18.0959 365.235 18.3166V26.9241C365.235 27.8069 365.066 28.6897 364.728 29.5725C364.728 30.4553 364.559 31.3381 364.222 32.2209L361.182 37.5178C361.182 39.2834 361.52 40.387 362.195 40.8284C361.182 44.3596 360.845 47.4495 361.182 50.0979V52.4153C361.182 53.5188 361.013 54.7326 360.676 56.0569C360.676 57.1604 360.507 58.2639 360.169 59.3674C359.494 61.3537 359.494 62.678 360.169 63.3401C360.169 63.7815 360.338 64.2229 360.676 64.6643C361.013 64.885 361.182 65.216 361.182 65.6575C361.858 65.8782 362.195 66.2092 362.195 66.6506C362.195 67.092 362.364 67.5334 362.702 67.9748C362.702 68.8576 362.195 70.1819 361.182 71.9475C361.182 72.3889 361.182 73.051 361.182 73.9338C361.182 74.5959 361.013 75.3684 360.676 76.2512C360.676 77.134 360.676 78.1272 360.676 79.2307C360.676 80.1135 360.507 81.1067 360.169 82.2102C359.831 83.093 359.663 84.0862 359.663 85.1897C359.663 86.0725 359.494 87.0657 359.156 88.1692V92.4729C359.156 95.1213 359.325 96.8869 359.663 97.7698V106.046C359.663 106.929 359.494 107.812 359.156 108.695C359.156 109.577 359.156 110.571 359.156 111.674C358.481 116.971 357.974 122.599 357.636 128.558C357.299 134.296 357.13 140.365 357.13 146.766C357.13 150.076 357.299 153.387 357.636 156.697C358.312 159.787 358.818 162.877 359.156 165.967C359.156 168.836 358.481 171.926 357.13 175.237C356.454 177.002 355.948 178.657 355.61 180.202C355.61 181.747 355.779 183.182 356.117 184.506C356.117 185.168 356.117 185.941 356.117 186.823C356.454 187.486 356.792 188.258 357.13 189.141C357.468 190.024 357.636 190.906 357.636 191.789C357.974 192.451 358.143 193.113 358.143 193.776C356.792 195.321 356.117 196.865 356.117 198.41L359.156 206.356C359.831 209.225 359.831 212.204 359.156 215.294C358.818 218.163 358.818 221.143 359.156 224.233C359.156 224.453 359.156 224.784 359.156 225.226C359.156 225.667 358.987 226.329 358.649 227.212V232.509C358.649 233.392 358.649 234.275 358.649 235.157C358.649 236.04 358.481 236.923 358.143 237.806V241.447C358.143 242.33 358.143 243.323 358.143 244.427C358.143 245.751 358.312 247.186 358.649 248.731C358.649 250.276 358.649 251.82 358.649 253.365C358.649 254.91 358.818 256.566 359.156 258.331C359.494 259.876 359.663 261.421 359.663 262.966C359.663 264.732 359.831 266.387 360.169 267.932C360.507 269.477 360.676 270.911 360.676 272.236C360.676 273.56 360.845 274.774 361.182 275.877C359.156 277.863 357.13 279.519 355.104 280.843C353.077 282.167 351.22 282.94 349.532 283.16C348.856 283.381 348.012 283.491 346.999 283.491Z" fill="#fff"/>
<path d="M367.936 20.9378C367.936 22.6263 367.492 24.3148 366.605 26.0033C363.054 26.0033 360.243 25.3279 358.172 23.9771C356.692 22.964 354.917 22.4574 352.846 22.4574C352.254 22.4574 351.514 22.4574 350.627 22.4574C349.739 22.4574 348.851 22.6263 347.964 22.964C345.597 23.3017 343.378 23.8082 341.306 24.4837C339.531 24.8214 337.608 24.9902 335.536 24.9902C332.578 24.9902 329.619 24.9902 326.66 24.9902C323.701 24.9902 320.742 25.3279 317.783 26.0033C315.712 26.0033 314.381 26.1722 313.789 26.5099L308.019 26.5099C306.54 26.5099 305.356 26.341 304.468 26.0033C302.989 27.0164 301.214 27.3541 299.142 27.0164L291.597 25.4968C290.118 25.1591 288.786 24.8214 287.603 24.4837C286.419 24.146 285.236 23.8083 284.052 23.4705C281.389 22.4574 279.318 21.9509 277.838 21.9509C275.471 22.2886 273.252 22.6263 271.181 22.964C268.814 22.964 266.743 23.3017 264.967 23.9771C263.192 23.9771 261.269 24.146 259.198 24.4837C257.126 24.8214 255.055 25.3279 252.984 26.0033C250.913 26.0033 249.433 25.8345 248.546 25.4968C247.954 25.1591 247.362 24.9902 246.77 24.9902C245.883 24.9902 245.143 24.8214 244.551 24.4837C243.663 24.4837 242.628 24.4837 241.444 24.4837C240.261 24.4837 239.077 24.6525 237.894 24.9902C236.414 24.9902 234.787 25.1591 233.011 25.4968C230.94 25.4968 228.721 25.6656 226.354 26.0033C225.466 26.0033 224.431 26.0033 223.247 26.0033C221.768 26.0033 220.288 25.8345 218.809 25.4968C217.329 25.1591 215.702 24.9902 213.927 24.9902C212.151 24.9902 210.376 24.8214 208.601 24.4837C206.825 24.146 205.198 23.9771 203.719 23.9771C201.943 23.9771 200.316 23.8083 198.836 23.4706C197.357 23.1328 196.025 22.964 194.842 22.964C193.363 22.964 192.327 22.964 191.735 22.964L188.184 22.964C186.113 22.964 184.338 23.1328 182.859 23.4706C181.083 23.4706 179.604 23.6394 178.42 23.9771L170.431 23.9771C168.952 23.9771 167.62 23.9771 166.437 23.9771C164.957 23.9771 163.626 23.8083 162.442 23.4706C160.963 23.4706 159.483 23.4706 158.004 23.4706C156.525 23.1329 154.749 22.964 152.678 22.964C151.199 22.964 149.571 22.964 147.796 22.964C146.02 22.964 144.393 22.7951 142.914 22.4574C141.138 22.1197 139.363 21.9509 137.588 21.9509C135.812 21.9509 134.037 21.9509 132.262 21.9509C130.191 21.6132 127.38 21.6132 123.829 21.9509C122.054 21.9509 120.278 21.9509 118.503 21.9509C116.728 21.9509 114.952 22.1197 113.177 22.4574C111.402 22.7951 109.626 22.964 107.851 22.964C106.076 22.964 104.448 23.1329 102.969 23.4706C101.194 23.8083 99.5661 23.9771 98.0867 23.9771C96.6073 23.9771 95.2758 23.9771 94.0922 23.9771C91.4293 23.6394 88.9142 23.4706 86.5471 23.4706C83.8841 23.4706 81.3691 23.4706 79.002 23.4706C76.6349 23.4706 74.2678 23.4706 71.9007 23.4706C69.5336 23.4706 67.3144 23.6394 65.2432 23.9771C60.509 24.3148 56.2186 24.6525 52.3721 24.9902C48.2297 24.9902 44.2352 24.9902 40.3886 24.9902C36.5421 25.3279 32.9914 25.6656 29.7367 26.0033C26.4819 26.0033 23.3751 26.0033 20.4163 26.0033C17.4574 26.0033 14.7944 25.8345 12.4273 25.4968C9.76428 25.1591 7.39718 24.6525 5.32596 23.9771C4.14241 21.9509 3.25475 20.0935 2.66298 18.405C1.77531 16.3788 1.18353 14.5214 0.887649 12.8329C0.591765 11.1444 0.443824 9.62476 0.443824 8.27396C0.14794 6.58545 -9.50267e-07 5.40349 -9.7979e-07 4.72808C0.88765 2.02646 1.77531 0.675657 2.66298 0.675657C3.84653 0.000250692 5.03009 -0.168601 6.21364 0.169102L9.32045 1.68876C11.0958 2.36416 12.1314 2.70186 12.4273 2.70186L23.9669 2.70186C25.1504 2.70186 26.334 2.87071 27.5175 3.20841C28.7011 3.20841 29.8846 3.37727 31.0682 3.71497L38.1695 6.75429C40.5366 6.75429 42.016 6.41659 42.6078 5.74119C47.342 6.75429 51.4844 7.09199 55.0351 6.75429L58.1419 6.75429C59.6213 6.75429 61.2487 6.92314 63.024 7.26084C64.5035 7.26084 65.9829 7.4297 67.4623 7.7674C70.1253 8.44281 71.9007 8.44281 72.7883 7.7674C73.3801 7.7674 73.9719 7.59855 74.5637 7.26084C74.8595 6.92314 75.3034 6.75429 75.8952 6.75429C76.1911 6.07889 76.6349 5.74119 77.2266 5.74119C77.8184 5.74119 78.4102 5.57233 79.002 5.23463C80.1855 5.23463 81.9608 5.74118 84.328 6.75429C84.9197 6.75429 85.8074 6.75429 86.9909 6.75429C87.8786 6.75429 88.9142 6.92314 90.0978 7.26084C91.2813 7.26084 92.6128 7.26084 94.0922 7.26084C95.2758 7.26084 96.6073 7.4297 98.0867 7.7674C99.2703 8.1051 100.602 8.27395 102.081 8.27395C103.265 8.27395 104.596 8.44281 106.076 8.78051L111.845 8.78051C115.396 8.78051 117.763 8.61166 118.947 8.27395L130.043 8.27395C131.226 8.27395 132.41 8.4428 133.593 8.78051C134.777 8.78051 136.108 8.78051 137.588 8.78051C144.689 9.45591 152.234 9.96247 160.223 10.3002C167.916 10.6379 176.053 10.8067 184.634 10.8067C189.072 10.8067 193.51 10.6379 197.949 10.3002C202.091 9.62476 206.234 9.11821 210.376 8.7805C214.223 8.7805 218.365 9.4559 222.803 10.8067C225.17 11.4821 227.39 11.9887 229.461 12.3264C231.532 12.3264 233.455 12.1575 235.231 11.8198C236.118 11.8198 237.154 11.8198 238.337 11.8198C239.225 11.4821 240.261 11.1444 241.444 10.8067C242.628 10.469 243.811 10.3002 244.995 10.3002C245.883 9.96246 246.77 9.7936 247.658 9.7936C249.729 11.1444 251.8 11.8198 253.872 11.8198L264.523 8.7805C268.37 8.1051 272.365 8.10509 276.507 8.7805C280.353 9.1182 284.348 9.1182 288.49 8.7805C288.786 8.7805 289.23 8.7805 289.822 8.7805C290.414 8.7805 291.301 8.94934 292.485 9.28705L299.586 9.28705C300.77 9.28705 301.953 9.28705 303.137 9.28705C304.32 9.28705 305.504 9.4559 306.687 9.7936L311.57 9.7936C312.753 9.7936 314.085 9.7936 315.564 9.7936C317.339 9.7936 319.263 9.62475 321.334 9.28704C323.405 9.28704 325.476 9.28704 327.548 9.28704C329.619 9.28704 331.838 9.1182 334.205 8.7805C336.276 8.4428 338.347 8.27394 340.419 8.27394C342.786 8.27394 345.005 8.10509 347.076 7.76739C349.147 7.42968 351.071 7.26083 352.846 7.26083C354.621 7.26083 356.249 7.09198 357.728 6.75428C360.391 8.78049 362.61 10.8067 364.386 12.8329C366.161 14.8591 367.196 16.7165 367.492 18.405C367.788 19.0804 367.936 19.9247 367.936 20.9378Z" fill="#fff"/>
<path d="M41.1009 373.967C42.2266 373.967 43.3523 373.527 44.478 372.647C44.478 369.125 44.0277 366.337 43.1272 364.283C42.4518 362.816 42.114 361.055 42.114 359.001C42.114 358.414 42.114 357.68 42.114 356.8C42.114 355.92 42.2266 355.039 42.4517 354.159C42.6769 351.811 43.0146 349.61 43.4649 347.556C43.69 345.795 43.8026 343.888 43.8026 341.833C43.8026 338.899 43.8026 335.964 43.8026 333.029C43.8026 330.095 44.0277 327.16 44.478 324.226C44.478 322.171 44.5905 320.851 44.8157 320.264V314.541C44.8157 313.074 44.7031 311.9 44.478 311.02C45.1534 309.552 45.3785 307.792 45.1534 305.737L44.1403 298.254C43.9151 296.787 43.69 295.466 43.4649 294.292C43.2397 293.119 43.0146 291.945 42.7895 290.771C42.114 288.13 41.7763 286.075 41.7763 284.608C42.0015 282.26 42.2266 280.059 42.4517 278.005C42.4517 275.658 42.6769 273.603 43.1272 271.843C43.1272 270.082 43.2397 268.174 43.4649 266.12C43.69 264.066 44.0277 262.012 44.478 259.957C44.478 257.903 44.3654 256.436 44.1403 255.555C43.9151 254.968 43.8026 254.382 43.8026 253.795C43.8026 252.914 43.69 252.181 43.4649 251.594C43.4649 250.713 43.4649 249.686 43.4649 248.512C43.4649 247.338 43.5774 246.165 43.8026 244.991C43.8026 243.523 43.9151 241.909 44.1403 240.149C44.1403 238.094 44.2528 235.893 44.478 233.546C44.478 232.665 44.478 231.638 44.478 230.464C44.478 228.997 44.3654 227.53 44.1403 226.062C43.9151 224.595 43.8026 222.981 43.8026 221.22C43.8026 219.46 43.69 217.699 43.4649 215.938C43.2397 214.177 43.1272 212.563 43.1272 211.096C43.1272 209.335 43.0146 207.721 42.7895 206.254C42.5643 204.786 42.4517 203.466 42.4517 202.292C42.4517 200.825 42.4517 199.798 42.4517 199.211V195.689C42.4517 193.635 42.5643 191.874 42.7895 190.407C42.7895 188.646 42.902 187.179 43.1272 186.005V178.081C43.1272 176.614 43.1272 175.293 43.1272 174.12C43.1272 172.652 43.0146 171.332 42.7895 170.158C42.7895 168.691 42.7895 167.223 42.7895 165.756C42.5643 164.289 42.4517 162.528 42.4517 160.474C42.4517 159.006 42.4517 157.392 42.4517 155.631C42.4517 153.871 42.3392 152.257 42.114 150.789C41.8889 149.029 41.7763 147.268 41.7763 145.507C41.7763 143.746 41.7763 141.986 41.7763 140.225C41.5512 138.171 41.5512 135.383 41.7763 131.861C41.7763 130.1 41.7763 128.34 41.7763 126.579C41.7763 124.818 41.8889 123.057 42.114 121.296C42.3392 119.536 42.4517 117.775 42.4517 116.014C42.4517 114.253 42.5643 112.639 42.7895 111.172C43.0146 109.411 43.1272 107.797 43.1272 106.33C43.1272 104.863 43.1272 103.542 43.1272 102.368C42.902 99.727 42.7895 97.2325 42.7895 94.8848C42.7895 92.2437 42.7895 89.7492 42.7895 87.4015C42.7895 85.0538 42.7895 82.7061 42.7895 80.3584C42.7895 78.0107 42.902 75.8098 43.1272 73.7555C43.3523 69.0601 43.5774 64.8049 43.8026 60.9899C43.8026 56.8815 43.8026 52.9197 43.8026 49.1047C44.0277 45.2897 44.2528 41.7681 44.478 38.5401C44.478 35.312 44.478 32.2306 44.478 29.296C44.478 26.3614 44.3654 23.7202 44.1403 21.3725C43.9151 18.7314 43.5774 16.3837 43.1272 14.3294C41.7763 13.1556 40.5381 12.2752 39.4124 11.6883C38.0616 10.8079 36.8234 10.221 35.6977 9.92749C34.572 9.63403 33.5589 9.48731 32.6584 9.48731C31.5327 9.19385 30.7447 9.04712 30.2945 9.04712C28.4934 9.92749 27.5928 10.8079 27.5928 11.6883C27.1426 12.8621 27.03 14.036 27.2551 15.2098L28.2682 18.2912C28.7185 20.0519 28.9436 21.0791 28.9436 21.3725V32.8176C28.9436 33.9914 29.0562 35.1652 29.2813 36.3391C29.2813 37.5129 29.3939 38.6868 29.619 39.8607L31.6453 46.9037C31.6453 49.2514 31.4201 50.7188 30.9699 51.3057C31.6453 56.0011 31.8704 60.1096 31.6453 63.6311V66.7124C31.6453 68.1798 31.7578 69.7938 31.983 71.5546C31.983 73.0219 32.0955 74.4892 32.3207 75.9565C32.7709 78.5977 32.7709 80.3584 32.3207 81.2388C32.3207 81.8258 32.2081 82.4127 31.983 82.9996C31.7578 83.2931 31.6453 83.7333 31.6453 84.3202C31.195 84.6137 30.9699 85.0538 30.9699 85.6408C30.9699 86.2277 30.8573 86.8146 30.6322 87.4015C30.6322 88.5754 30.9699 90.3362 31.6453 92.6839C31.6453 93.2708 31.6453 94.1512 31.6453 95.325C31.6453 96.2054 31.7578 97.2325 31.983 98.4064C31.983 99.5802 31.983 100.901 31.983 102.368C31.983 103.542 32.0955 104.863 32.3207 106.33C32.5458 107.504 32.6584 108.824 32.6584 110.292C32.6584 111.465 32.7709 112.786 32.9961 114.253V119.976C32.9961 123.497 32.8835 125.845 32.6584 127.019L32.6584 138.024C32.6584 139.198 32.7709 140.371 32.9961 141.545C32.9961 142.719 32.9961 144.04 32.9961 145.507C33.4464 152.55 33.7841 160.033 34.0092 167.957C34.2343 175.587 34.3469 183.657 34.3469 192.168C34.3469 196.569 34.2343 200.971 34.0092 205.373C33.5589 209.482 33.2212 213.59 32.9961 217.699C32.9961 221.514 33.4463 225.622 34.3469 230.024C34.7972 232.372 35.1349 234.573 35.36 236.627C35.36 238.681 35.2474 240.589 35.0223 242.35C35.0223 243.23 35.0223 244.257 35.0223 245.431C34.7972 246.311 34.572 247.338 34.3469 248.512C34.1217 249.686 34.0092 250.86 34.0092 252.034C33.7841 252.914 33.6715 253.795 33.6715 254.675C34.572 256.729 35.0223 258.783 35.0223 260.838L32.9961 271.402C32.5458 275.217 32.5458 279.179 32.9961 283.288C33.2212 287.103 33.2212 291.064 32.9961 295.173C32.9961 295.466 32.9961 295.906 32.9961 296.493C32.9961 297.08 33.1086 297.961 33.3338 299.135V306.178C33.3338 307.351 33.3338 308.525 33.3338 309.699C33.3338 310.873 33.4463 312.047 33.6715 313.221V318.063C33.6715 319.237 33.6715 320.557 33.6715 322.025C33.6715 323.785 33.5589 325.693 33.3338 327.747C33.3338 329.801 33.3338 331.856 33.3338 333.91C33.3338 335.964 33.2212 338.165 32.9961 340.513C32.7709 342.567 32.6584 344.621 32.6584 346.675C32.6584 349.023 32.5458 351.224 32.3207 353.278C32.0955 355.333 31.983 357.24 31.983 359.001C31.983 360.762 31.8704 362.376 31.6453 363.843C32.9961 366.484 34.3469 368.685 35.6977 370.446C37.0485 372.207 38.2867 373.234 39.4124 373.527C39.8627 373.821 40.4255 373.967 41.1009 373.967Z" fill="#fff"/>
<path d="M129.682 302.393C129.682 301.267 129.963 300.142 130.525 299.016C132.772 299.016 134.55 299.466 135.861 300.367C136.797 301.042 137.921 301.38 139.231 301.38C139.606 301.38 140.074 301.38 140.636 301.38C141.197 301.38 141.759 301.267 142.321 301.042C143.819 300.817 145.223 300.48 146.534 300.029C147.657 299.804 148.874 299.692 150.185 299.692C152.057 299.692 153.929 299.692 155.802 299.692C157.674 299.692 158.94 296.765 160.812 296.315C162.123 296.315 162.965 296.202 163.34 295.977L166.991 295.977C167.927 295.977 168.676 296.089 169.238 296.315C170.174 295.639 171.297 295.414 172.608 295.639L177.382 296.652C178.319 296.877 179.161 297.102 179.91 297.328C180.659 297.553 181.408 297.778 182.157 298.003C183.842 298.678 185.153 299.016 186.089 299.016C187.587 298.791 188.991 298.566 190.302 298.341C191.8 298.341 193.11 298.116 194.234 297.665C195.357 297.665 196.574 297.553 197.885 297.328C199.196 297.102 200.506 296.765 201.817 296.315C203.127 296.315 204.064 296.427 204.625 296.652C205 296.877 205.374 296.99 205.749 296.99C206.311 296.99 206.779 297.102 207.153 297.328C207.715 297.328 208.37 297.328 209.119 297.328C209.868 297.328 210.617 297.215 211.366 296.99C212.302 296.99 213.332 296.877 214.455 296.652C215.766 296.652 217.17 296.54 218.668 296.315C219.23 296.315 219.885 296.315 220.634 296.315C221.57 296.315 222.506 296.427 223.443 296.652C224.379 296.877 225.409 296.99 226.532 296.99C227.656 296.99 228.779 297.102 229.902 297.328C231.026 297.553 232.056 297.665 232.992 297.665C234.115 297.665 235.145 297.778 236.081 298.003C237.017 298.228 237.86 298.341 238.609 298.341C239.545 298.341 240.2 298.341 240.575 298.341L242.822 298.341C244.132 298.341 245.256 298.228 246.192 298.003C247.315 298.003 248.252 297.89 249.001 297.665L254.056 297.665C254.992 297.665 255.835 297.665 256.584 297.665C257.52 297.665 258.362 297.778 259.111 298.003C260.047 298.003 260.984 298.003 261.92 298.003C262.856 298.228 263.979 298.341 265.29 298.341C266.226 298.341 267.256 298.341 268.38 298.341C269.503 298.341 270.533 298.453 271.469 298.678C272.592 298.904 273.716 299.016 274.839 299.016C275.963 299.016 277.086 299.016 278.209 299.016C279.52 299.241 281.299 299.241 283.546 299.016C284.669 299.016 285.793 299.016 286.916 299.016C288.039 299.016 289.163 298.904 290.286 298.678C291.41 298.453 292.533 298.341 293.656 298.341C294.78 298.341 295.81 298.228 296.746 298.003C297.869 297.778 298.899 297.665 299.835 297.665C300.771 297.665 301.614 297.665 302.363 297.665C304.048 297.89 305.64 298.003 307.138 298.003C308.823 298.003 310.414 298.003 311.912 298.003C313.41 298.003 314.908 298.003 316.406 298.003C317.904 298.003 319.308 297.89 320.619 297.665C323.614 297.44 326.329 297.215 328.763 296.99C331.385 296.99 333.912 296.99 336.346 296.99C338.781 296.765 341.027 296.54 343.087 296.315C345.147 296.315 347.113 296.315 348.985 296.315C350.857 296.315 352.542 296.427 354.04 296.652C355.725 296.877 357.223 297.215 358.534 297.665C359.283 299.016 359.845 300.254 360.219 301.38C360.781 302.731 361.155 303.969 361.343 305.095C361.53 306.22 361.623 307.234 361.623 308.134C361.811 309.26 361.904 310.048 361.904 310.498C361.343 312.299 360.781 313.2 360.219 313.2C359.47 313.65 358.721 313.762 357.972 313.537L356.006 312.524C354.883 312.074 354.228 311.849 354.04 311.849L346.738 311.849C345.989 311.849 345.24 311.736 344.491 311.511C343.742 311.511 342.993 311.399 342.244 311.173L337.751 309.147C336.253 309.147 335.317 309.372 334.942 309.823C331.946 309.147 329.325 308.922 327.078 309.147L325.112 309.147C324.176 309.147 323.146 309.035 322.023 308.809C321.087 308.809 320.15 308.697 319.214 308.472C317.529 308.022 316.406 308.022 315.844 308.472C315.47 308.472 315.095 308.584 314.721 308.809C314.533 309.035 314.253 309.147 313.878 309.147C313.691 309.597 313.41 309.823 313.035 309.823C312.661 309.823 312.287 309.935 311.912 310.16C311.163 310.16 310.04 309.823 308.542 309.147C308.167 309.147 307.606 309.147 306.857 309.147C306.295 309.147 305.64 309.035 304.891 308.809C304.142 308.809 303.299 308.809 302.363 308.809C301.614 308.809 300.771 308.697 299.835 308.472C299.086 308.247 298.244 308.134 297.308 308.134C296.559 308.134 295.716 308.022 294.78 307.796L291.129 307.796C288.882 307.796 287.384 307.909 286.635 308.134L279.614 308.134C278.865 308.134 278.116 308.022 277.367 307.796C276.618 307.796 275.775 307.796 274.839 307.796C270.346 307.346 265.571 307.008 260.516 306.783C255.647 306.558 250.498 306.446 245.069 306.446C242.26 306.446 239.451 306.558 236.643 306.783C234.022 307.234 231.4 307.571 228.779 307.796C226.345 307.796 223.724 307.346 220.915 306.446C219.417 305.995 218.013 305.658 216.702 305.432C215.391 305.432 214.174 305.545 213.051 305.77C212.489 305.77 211.834 305.77 211.085 305.77C210.523 305.995 209.868 306.22 209.119 306.446C208.37 306.671 207.621 306.783 206.872 306.783C206.31 307.008 205.749 307.121 205.187 307.121C203.876 306.22 202.566 305.77 201.255 305.77L194.515 307.796C192.081 308.247 189.553 308.247 186.931 307.796C184.497 307.571 181.97 307.571 179.348 307.796C179.161 307.796 178.88 307.796 178.506 307.796C178.131 307.796 177.57 307.684 176.821 307.459L172.327 307.459C171.578 307.459 170.829 307.459 170.08 307.459C169.331 307.459 168.582 307.346 167.833 307.121L164.744 307.121C163.995 307.121 163.152 307.121 162.216 307.121C161.093 307.121 159.876 307.234 158.565 307.459C157.254 307.459 156.551 310.16 155.24 310.16C153.929 310.16 152.525 310.273 151.027 310.498C149.717 310.723 148.406 310.836 147.095 310.836C145.597 310.836 143.631 307.571 142.321 307.796C141.01 308.022 139.793 308.134 138.67 308.134C137.546 308.134 136.516 308.247 135.58 308.472C133.895 307.121 133.053 309.147 131.929 307.796C130.806 306.446 130.15 305.207 129.963 304.082C129.776 303.631 129.682 303.069 129.682 302.393Z" fill="#fff"/>
</svg>
