<svg viewBox="0 0 260.8 262.48" xmlns="http://www.w3.org/2000/svg" aria-hidden="true"><path d="M253.69,130.56c.42,8.68.04,17.38-1.25,25.87-.46,2.82-1.25,5.52-2.3,8.12-1.84,4.81-3.61,9.73-5.47,14.62-.93,2.45-1.9,4.87-3.11,7.14-1.15,2.23-2.33,4.47-3.55,6.7-1.22,2.23-2.49,4.47-3.8,6.68-5.48,6.17-10.73,12.88-16.21,19.35-1.83,2.13-3.69,4.24-5.69,6.07-8.2,7.38-17.38,14.34-27.33,19.83-2.49,1.37-5.03,2.62-7.67,3.48-2.46.68-4.95,1.37-7.46,2.04-2.51.66-5.05,1.3-7.6,1.9-8.36.86-16.83,2.2-25.25,3.22-2.81.34-5.61.64-8.39.88-8.26-.38-16.66-1.16-24.94-2.63-2.76-.49-5.5-1.05-8.23-1.7-10.4-4.09-21.03-8.55-30.93-14.01-2.47-1.37-4.88-2.82-6.91-4.59-9.89-9.55-21.29-18.91-30.49-29.61-1.81-2.16-3.48-4.41-4.93-6.79-3.8-6.8-7.14-13.96-9.85-21.36-.89-2.48-1.71-4.98-2.19-7.63-.15-2.53-.4-5.08-.73-7.65-.31-2.57-.68-5.16-.84-7.83-.16-2.65-.39-5.32-.66-8.01-.25-2.69-.53-5.4-.7-8.11-1.06-8.35-1.5-16.81-1.04-25.13.15-2.77.41-5.52.78-8.25,2.27-8.32,5.05-16.62,8.5-24.56,1.15-2.65,2.38-5.25,3.68-7.81,4.85-7.35,10.2-14.67,16.08-21.52,1.96-2.26,4.01-4.39,6.17-6.13,5.92-5.05,12.01-10.24,18.39-15.02,2.12-1.57,4.28-3.06,6.46-4.29,2.4-1.42,4.85-2.78,7.33-4.07,2.48-1.27,4.99-2.48,7.49-3.39,2.34-.84,4.69-1.68,7.08-2.5s4.78-1.62,7.2-2.39c7.45-.5,14.51-1.37,21.57-2.43,2.36-.35,4.71-.73,7.08-1.12,5.91-1.32,11.9-1.94,17.87-1.93,2.99,0,5.96.18,8.91.52,5.38,2.13,11.01,4.03,16.69,5.93,2.84.95,5.69,1.91,8.51,2.92,25.83,12.6,54.13,25.92,61.78,56.13.88,2.33,2.03,4.49,3.24,6.64,3.62,6.43,7.28,12.96,10.1,19.68.94,2.24,1.79,4.5,2.5,6.78,2.31,6.61.64,14.1.25,20.75-.19,1.79-.21,3.51-.17,5.21Z" fill="none" stroke="#ffa426" stroke-width="12" stroke-miterlimit="10"/><path d="M53.61,55.47c3.06-2.55,6.08-5.22,9.24-7.79,2.25-1.84,4.55-3.65,6.94-5.36,1.09-.78,2.19-1.53,3.3-2.24.8-.51,1.61-.99,2.42-1.45,2.13-1.21,4.27-2.42,6.45-3.54.98-.5,1.96-.98,2.95-1.43,1.21-.56,2.42-1.07,3.64-1.51,2.05-.74,4.13-1.45,6.23-2.13,2.1-.68,4.22-1.34,6.36-1.95,3.82-.28,7.57-.6,11.29-.95,2.56-.3,5.11-.61,7.66-.92,2.07-.25,4.16-.43,6.24-.75,4.81-.76,9.62-1.34,14.45-1.25,2.41.05,4.81.22,7.19.53,2.46.95,4.97,1.86,7.52,2.75,1.99.66,4,1.31,6.02,1.97,2.31.75,4.66,1.39,6.91,2.3,4.72,1.92,9.31,4.36,13.91,6.74,8.74,4.51,17.11,9.64,23.86,16.26,5.88,5.79,9.83,12.97,13.08,21.44.82,2.15,2.18,4.06,3.38,6.08.48.81.97,1.64,1.45,2.46,1.57,2.52,3.1,5.09,4.53,7.72,1.44,2.68,2.81,5.38,3.99,8.16.9,2.12,1.68,4.27,2.41,6.42.39,1.14.71,2.3.92,3.48.6,3.44.55,6.99.4,10.48-.08,1.91-.16,3.81-.25,5.65-.09,1.69-.16,3.33-.12,4.95.13,5.33.06,10.67-.54,15.95-.23,2.03-.51,4.06-.88,6.07-.43,2.38-1.17,4.66-2.07,6.88-.48,1.17-.94,2.35-1.4,3.54-1.14,2.93-2.28,5.89-3.48,8.84-.84,2.05-1.74,4.08-2.8,6-.11.2-.21.39-.32.59-.88,1.71-1.79,3.41-2.72,5.12-1.05,1.9-2.14,3.8-3.27,5.68-1.23,1.44-2.45,2.9-3.69,4.37-3.36,4-6.74,8.09-10.23,12.07-1.5,1.71-3.02,3.41-4.66,4.89-4.68,4.22-9.8,8.22-15.23,11.79-2.29,1.51-4.63,2.94-7.02,4.28-2.01,1.13-4.05,2.21-6.19,2.91-1.97.64-3.98,1.21-6,1.8s-4.02,1.28-6.1,1.69c-.13.03-.26.04-.39.05-6.59.94-13.27,2.19-19.93,3.14-2.26.32-4.52.61-6.77.84-7.99,0-16.25-.51-24.38-1.81-2.71-.43-5.43-.81-8.06-1.58-10.54-3.07-20.67-8.16-29.76-14.31-2.23-1.51-4.39-3.12-6.21-5.03-5.47-5.7-11.49-11.32-17.02-17.31-2.37-2.56-4.67-5.19-6.78-7.92-1.4-1.81-2.69-3.69-3.76-5.71-1.31-2.47-2.46-5.05-3.57-7.65-1.42-3.31-2.73-6.69-3.85-10.14-.66-2.05-1.38-4.11-1.61-6.31-.2-1.97-.24-3.97-.44-5.97-.01-.11-.03-.23-.04-.34-.24-2.13-.52-4.27-.64-6.47-.12-2.19-.31-4.39-.51-6.61s-.42-4.45-.56-6.69c-.72-4.91-1.08-9.85-1.09-14.74,0-2.15.06-4.29.19-6.42.14-2.34.22-4.69.66-6.97.89-4.63,2.55-9.12,4.15-13.58.86-2.42,1.81-4.81,2.84-7.15.97-2.21,1.92-4.44,3.14-6.51,2.42-4.09,5.37-7.97,8.33-11.87,1.64-2.16,3.34-4.3,5.12-6.36,1.64-1.9,3.38-3.68,5.19-5.19Z" fill="none" stroke="#ff981c" stroke-width="10.25" stroke-miterlimit="10"/><path d="M65.83,67.79c2.62-2.21,5.22-4.51,7.94-6.73,1.93-1.58,3.93-3.11,6.02-4.55.94-.65,1.91-1.27,2.89-1.86.7-.42,1.4-.83,2.1-1.22,1.84-1.03,3.69-2.05,5.58-3,.84-.42,1.69-.83,2.54-1.22,1.04-.47,2.09-.9,3.14-1.28,1.77-.63,3.56-1.22,5.38-1.77,1.81-.55,3.65-1.05,5.52-1.51,3.25-.26,6.49-.49,9.74-.66,2.2-.24,4.39-.45,6.59-.64,1.79-.15,3.59-.2,5.4-.39,3.67-.39,7.34-.74,11.04-.56,1.83.09,3.65.27,5.47.54,1.88.71,3.81,1.4,5.76,2.08,1.53.47,3.08.95,4.63,1.42,1.77.55,3.57,1.02,5.3,1.69,3.64,1.4,7.19,3.17,10.73,4.92,6.72,3.32,13.17,7.13,18.49,12.02,4.62,4.28,7.74,9.68,10.69,15.82.92,1.92,2.32,3.63,3.53,5.52.48.75.95,1.52,1.41,2.3,1.61,2.28,3.14,4.64,4.54,7.11s2.74,4.99,3.86,7.6c.86,1.99,1.61,4.02,2.32,6.05.38,1.08.72,2.16.95,3.28.66,3.25.84,6.57.92,9.86.05,1.79.06,3.57.03,5.33-.03,1.59-.09,3.14-.07,4.69.05,4.4-.07,8.81-.69,13.18-.24,1.67-.52,3.34-.88,4.99-.42,1.94-1.06,3.81-1.84,5.64-.41.96-.82,1.93-1.23,2.91-1,2.4-1.98,4.83-3.07,7.23-.75,1.66-1.56,3.3-2.49,4.87-.09.16-.19.32-.28.48-.73,1.41-1.48,2.82-2.26,4.23-.88,1.57-1.79,3.14-2.74,4.68-.99,1.21-1.98,2.45-3,3.67-2.78,3.33-5.66,6.63-8.62,9.86-1.17,1.29-2.35,2.57-3.62,3.7-3.62,3.22-7.57,6.26-11.78,8.98-1.77,1.15-3.57,2.26-5.4,3.31-1.54.88-3.09,1.74-4.71,2.33-1.49.55-3.01,1.05-4.53,1.56s-3.04,1.09-4.61,1.49c-.1.02-.2.04-.29.06-4.98,1.01-10.04,2.21-15.1,3.11-1.72.3-3.44.57-5.16.79-7.73.36-15.85.15-23.82-.99-2.65-.38-5.31-.76-7.89-1.45-10.42-2.78-20.32-7.76-28.59-14.6-2-1.65-3.85-3.46-5.51-5.47-3.93-4.79-8.39-9.37-12.33-14.33-1.68-2.12-3.29-4.28-4.77-6.53-.96-1.48-1.86-3-2.59-4.62-.9-1.99-1.66-4.05-2.41-6.13-.95-2.64-1.84-5.33-2.57-8.08-.43-1.63-.9-3.26-1.02-4.99-.11-1.55-.11-3.13-.21-4.7,0-.09-.02-.18-.03-.27-.17-1.68-.36-3.37-.45-5.1-.09-1.73-.22-3.47-.37-5.21s-.31-3.51-.42-5.27c-.7-4.01-.98-8.02-.96-11.96,0-1.75.08-3.49.2-5.22.13-1.92.22-3.83.54-5.68.67-3.77,1.94-7.44,3.2-11.09.67-1.97,1.43-3.92,2.28-5.82.79-1.77,1.59-3.55,2.6-5.22,1.99-3.3,4.31-6.51,6.69-9.73,1.31-1.78,2.67-3.52,4.13-5.21,1.32-1.54,2.72-3,4.2-4.24Z" fill="none" stroke="#ff8c13" stroke-width="8.5" stroke-miterlimit="10"/><path d="M78.05,80.12c2.18-1.86,4.35-3.79,6.63-5.67,1.61-1.32,3.3-2.58,5.1-3.74.8-.52,1.63-1.01,2.47-1.48.59-.33,1.19-.66,1.78-.99,1.56-.85,3.11-1.69,4.7-2.47.7-.35,1.41-.68,2.13-1,.87-.38,1.75-.74,2.64-1.05,1.48-.52,2.99-.99,4.54-1.41,1.53-.41,3.09-.77,4.67-1.07,2.68-.24,5.4-.37,8.18-.38,1.84-.17,3.68-.3,5.53-.36,1.51-.05,3.04.15,4.55-.03,2.51-.31,5.07-.14,7.62.13,1.25.13,2.5.31,3.74.55,1.31.47,2.65.94,4,1.41,1.07.29,2.15.58,3.23.87,1.24.34,2.49.66,3.7,1.07,2.55.88,5.06,1.98,7.55,3.1,4.7,2.12,9.24,4.6,13.12,7.78,3.36,2.75,5.83,6.31,8.31,10.2,1.07,1.67,2.47,3.2,3.67,4.96.47.69.93,1.4,1.38,2.13,1.64,2.04,3.18,4.2,4.56,6.49s2.67,4.6,3.74,7.05c.81,1.87,1.54,3.77,2.23,5.69.37,1.01.72,2.02.97,3.07.72,3.05,1.12,6.15,1.43,9.24.16,1.67.28,3.34.31,5.01.03,1.48-.01,2.96-.02,4.44-.01,3.47-.2,6.95-.85,10.41-.24,1.31-.54,2.61-.89,3.91-.41,1.5-.96,2.96-1.61,4.4-.34.75-.7,1.51-1.05,2.27-.85,1.87-1.69,3.76-2.66,5.62-.66,1.27-1.38,2.52-2.19,3.74-.08.12-.16.24-.24.37-.57,1.12-1.17,2.24-1.8,3.34-.7,1.24-1.44,2.47-2.21,3.69-.75.99-1.5,2-2.31,2.97-2.2,2.65-4.58,5.17-7.01,7.66-.84.86-1.68,1.73-2.58,2.51-2.56,2.22-5.35,4.3-8.32,6.18-1.26.8-2.52,1.59-3.79,2.35-1.07.64-2.13,1.26-3.24,1.76-1.01.46-2.04.89-3.06,1.33-1.03.44-2.05.91-3.11,1.28-.07.02-.13.04-.2.06-3.37,1.08-6.8,2.23-10.27,3.07-1.18.29-2.36.54-3.54.75-7.47.73-15.45.8-23.27-.16-2.6-.32-5.19-.71-7.72-1.33-10.32-2.5-19.98-7.34-27.42-14.89-1.76-1.79-3.37-3.75-4.81-5.91-2.51-3.77-5.29-7.42-7.64-11.35-1-1.67-1.93-3.37-2.76-5.14-.54-1.14-1.03-2.31-1.43-3.53-.48-1.5-.86-3.05-1.25-4.61-.49-1.98-.96-3.97-1.3-6.02-.2-1.2-.41-2.41-.43-3.67-.02-1.14.02-2.28.02-3.44,0-.06,0-.13-.01-.2-.09-1.23-.2-2.48-.25-3.74-.06-1.27-.14-2.54-.23-3.81s-.2-2.57-.28-3.85c-.68-3.11-.88-6.19-.83-9.19.02-1.35.1-2.69.2-4.02.12-1.49.21-2.96.43-4.39.44-2.91,1.33-5.76,2.24-8.59.49-1.52,1.05-3.03,1.72-4.5.61-1.34,1.27-2.66,2.06-3.93,1.56-2.5,3.26-5.04,5.05-7.59.98-1.39,2.02-2.75,3.13-4.06,1.01-1.18,2.06-2.31,3.22-3.3Z" fill="none" stroke="#ff7f0a" stroke-width="6.75" stroke-miterlimit="10"/><path d="M78.7,127.4c-.66-2.21-.79-4.36-.71-6.42.08-2.06.37-4.04.52-5.92.28-2.05.71-4.09,1.29-6.1.55-2.02,1.4-3.97,2.68-5.8,1.08-1.73,2.19-3.59,3.41-5.45,1.2-1.88,2.65-3.65,4.38-5.27,1.79-1.47,3.48-3.09,5.33-4.6,1.84-1.53,3.9-2.89,6.23-4.04,2.33-1.19,4.6-2.45,7.01-3.48,4.82-2.05,10.22-3.03,16.28-2.59,2.67-.2,5.4-.13,8.18.25,2.78.38,5.6,1.08,8.46,2.12,2.84.45,5.62,1.14,8.3,2.06,2.69.93,5.28,2.1,7.75,3.54,2.09,1.25,4.07,2.76,5.93,4.57,1.86,1.81,3.58,3.92,5.16,6.36,1.67,1.8,3.2,3.76,4.57,5.88,1.31,2.09,2.55,4.23,3.61,6.5,1.1,2.69,2.24,5.37,3.13,8.19.66,2.89,1.43,5.73,1.94,8.63.54,2.89.77,5.85.63,8.87-.01,2.54-.33,5.09-1,7.63-.68,2.55-1.71,5.09-3.15,7.63-1.11,2.35-2.54,4.65-4.34,6.87-1.31,2.58-2.85,5.05-4.63,7.4-1.69,1.91-3.46,3.75-5.4,5.46-1.92,1.72-4.05,3.3-6.4,4.69-2.55,1.55-4.86,3.26-7.23,4.8-2.35,1.56-4.78,2.96-7.36,3.74-21.78,3.3-49.25-.03-60.63-22.08-1.11-2.74-2.22-5.46-2.95-8.37-.76-2.9-1.14-5.99-1.09-9.29-.14-2.74-.02-5.57.39-8.47-.05-2.45-.11-4.92-.29-7.33Z" fill="none" stroke="#ff7300" stroke-width="4.99" stroke-miterlimit="10"/></svg>
